<svg xmlns="http://www.w3.org/2000/svg" xmlns:xlink="http://www.w3.org/1999/xlink" version="1.1" width="256" height="256" viewBox="0 0 256 256" xml:space="preserve">

<defs>
</defs>
<g style="stroke: none; stroke-width: 0; stroke-dasharray: none; stroke-linecap: butt; stroke-linejoin: miter; stroke-miterlimit: 10; fill: none; fill-rule: nonzero; opacity: 1;" transform="translate(1.4065934065934016 1.4065934065934016) scale(2.81 2.81)" >
	<path d="M 47.318 18.823 c -0.068 0 -0.137 -0.007 -0.206 -0.021 c -8.146 -1.707 -16.405 -1.706 -24.549 0 c -0.54 0.114 -1.071 -0.234 -1.184 -0.774 c -0.113 -0.541 0.233 -1.071 0.773 -1.184 c 8.416 -1.762 16.953 -1.763 25.37 0 c 0.54 0.113 0.887 0.644 0.773 1.184 C 48.197 18.499 47.781 18.823 47.318 18.823 z" style="stroke: none; stroke-width: 1; stroke-dasharray: none; stroke-linecap: butt; stroke-linejoin: miter; stroke-miterlimit: 10; fill: rgb(0,0,0); fill-rule: nonzero; opacity: 1;" transform=" matrix(1 0 0 1 0 0) " stroke-linecap="round" />
	<path d="M 48.872 49.117 V 26.42 v -1.453 c 0 -1.327 -0.175 -2.611 -0.504 -3.832 c -0.331 -1.228 -0.817 -2.391 -1.435 -3.466 l 0.072 -0.041 c -8.188 -1.715 -16.376 -1.715 -24.565 0 l 0.05 0.029 c -0.62 1.075 -1.108 2.24 -1.44 3.47 c -0.33 1.223 -0.506 2.51 -0.506 3.84 v 1.453 v 22.698 H 48.872 z" style="stroke: none; stroke-width: 1; stroke-dasharray: none; stroke-linecap: butt; stroke-linejoin: miter; stroke-miterlimit: 10; fill: rgb(249,208,112); fill-rule: nonzero; opacity: 1;" transform=" matrix(1 0 0 1 0 0) " stroke-linecap="round" />
	<path d="M 28.392 42.933 l -0.035 1.459 c 0 0.527 -0.105 1.034 -0.299 1.503 l -9.101 3.607 c -2.968 0.5 -5.124 2.883 -5.124 5.663 v 19.943 h 20.872 h 20.872 V 55.166 c 0 -2.78 -2.156 -5.163 -5.124 -5.663 l -9.111 -3.607 l -0.322 -2.962 H 28.392 z" style="stroke: none; stroke-width: 1; stroke-dasharray: none; stroke-linecap: butt; stroke-linejoin: miter; stroke-miterlimit: 10; fill: rgb(63,110,144); fill-rule: nonzero; opacity: 1;" transform=" matrix(1 0 0 1 0 0) " stroke-linecap="round" />
	<polyline points="18.96,49.5 28.06,45.9 34.82,57.85 18.96,49.5 " style="stroke: none; stroke-width: 1; stroke-dasharray: none; stroke-linecap: butt; stroke-linejoin: miter; stroke-miterlimit: 10; fill: rgb(240,114,129); fill-rule: nonzero; opacity: 1;" transform="  matrix(1 0 0 1 0 0) "/>
	<polyline points="50.44,49.5 41.34,45.9 34.82,57.85 50.44,49.5 " style="stroke: none; stroke-width: 1; stroke-dasharray: none; stroke-linecap: butt; stroke-linejoin: miter; stroke-miterlimit: 10; fill: rgb(240,114,129); fill-rule: nonzero; opacity: 1;" transform="  matrix(1 0 0 1 0 0) "/>
	<path d="M 22.475 12.951 l 0 4.627 c 8.163 -1.71 16.326 -1.71 24.489 0 v -4.636 l 10.312 -3.388 c 0.695 -0.228 0.695 -1.211 0 -1.439 L 36.928 1.429 c -1.444 -0.475 -3.003 -0.475 -4.447 0 L 12.134 8.115 c -0.695 0.228 -0.695 1.211 0 1.439 L 22.475 12.951" style="stroke: none; stroke-width: 1; stroke-dasharray: none; stroke-linecap: butt; stroke-linejoin: miter; stroke-miterlimit: 10; fill: rgb(63,110,144); fill-rule: nonzero; opacity: 1;" transform=" matrix(1 0 0 1 0 0) " stroke-linecap="round" />
	<path d="M 13.703 28.698 h -4.18 v -6.55 c 0 -1.154 0.936 -2.09 2.09 -2.09 h 0 c 1.154 0 2.09 0.936 2.09 2.09 V 28.698 z" style="stroke: none; stroke-width: 1; stroke-dasharray: none; stroke-linecap: butt; stroke-linejoin: miter; stroke-miterlimit: 10; fill: rgb(249,208,112); fill-rule: nonzero; opacity: 1;" transform=" matrix(1 0 0 1 0 0) " stroke-linecap="round" />
	<path d="M 45.95 27.285 l -0.06 5.53 c -0.14 1.71 -0.233 3.291 -0.906 4.8 c -0.364 0.816 -0.799 1.594 -1.299 2.324 c -0.5 0.731 -1.065 1.415 -1.687 2.043 c -1.459 1.472 -3.235 2.635 -5.24 3.374 l 0 0 c -1.324 0.488 -2.774 0.488 -4.098 0 l 0 0 c -5.3 -1.952 -8.61 -6.816 -9.08 -12.542 l -0.156 -6.054 c 7.751 -1.062 12.281 -2.762 15.382 -5.972 C 41.202 23.687 42.448 25.372 45.95 27.285 z" style="stroke: none; stroke-width: 1; stroke-dasharray: none; stroke-linecap: butt; stroke-linejoin: miter; stroke-miterlimit: 10; fill: rgb(236,190,155); fill-rule: nonzero; opacity: 1;" transform=" matrix(1 0 0 1 0 0) " stroke-linecap="round" />
	<polygon points="41.24,46.8 34.82,57.85 28.41,46.8 28.41,45 41.24,45 " style="stroke: none; stroke-width: 1; stroke-dasharray: none; stroke-linecap: butt; stroke-linejoin: miter; stroke-miterlimit: 10; fill: rgb(236,190,155); fill-rule: nonzero; opacity: 1;" transform="  matrix(1 0 0 1 0 0) "/>
	<path d="M 39.809 38.091 c -3.119 4.179 -6.237 4.208 -9.356 0 H 39.809 z" style="stroke: none; stroke-width: 1; stroke-dasharray: none; stroke-linecap: butt; stroke-linejoin: miter; stroke-miterlimit: 10; fill: rgb(255,255,255); fill-rule: nonzero; opacity: 1;" transform=" matrix(1 0 0 1 0 0) " stroke-linecap="round" />
	<path d="M 47.317 18.823 c -0.553 0 -1 -0.448 -1 -1 v -7.455 c 0 -0.552 0.447 -1 1 -1 s 1 0.448 1 1 v 7.455 C 48.317 18.375 47.87 18.823 47.317 18.823 z" style="stroke: none; stroke-width: 1; stroke-dasharray: none; stroke-linecap: butt; stroke-linejoin: miter; stroke-miterlimit: 10; fill: rgb(0,0,0); fill-rule: nonzero; opacity: 1;" transform=" matrix(1 0 0 1 0 0) " stroke-linecap="round" />
	<path d="M 22.358 18.823 c -0.552 0 -1 -0.448 -1 -1 v -7.455 c 0 -0.552 0.448 -1 1 -1 c 0.552 0 1 0.448 1 1 v 7.455 C 23.358 18.375 22.91 18.823 22.358 18.823 z" style="stroke: none; stroke-width: 1; stroke-dasharray: none; stroke-linecap: butt; stroke-linejoin: miter; stroke-miterlimit: 10; fill: rgb(0,0,0); fill-rule: nonzero; opacity: 1;" transform=" matrix(1 0 0 1 0 0) " stroke-linecap="round" />
	<path d="M 22.358 14.108 c -0.104 0 -0.208 -0.017 -0.312 -0.05 l -10.539 -3.463 c -0.729 -0.239 -1.219 -0.916 -1.219 -1.684 s 0.49 -1.444 1.22 -1.684 l 20.737 -6.814 c 1.687 -0.554 3.471 -0.554 5.158 0 l 20.738 6.814 c 0.728 0.239 1.219 0.916 1.219 1.684 s -0.49 1.444 -1.22 1.684 L 47.63 14.048 c -0.523 0.172 -1.09 -0.113 -1.263 -0.638 c -0.172 -0.524 0.113 -1.09 0.638 -1.262 l 9.85 -3.237 L 36.777 2.314 c -1.278 -0.421 -2.63 -0.421 -3.909 0 L 12.791 8.911 l 9.879 3.246 c 0.525 0.172 0.811 0.738 0.638 1.262 C 23.169 13.841 22.778 14.108 22.358 14.108 z" style="stroke: none; stroke-width: 1; stroke-dasharray: none; stroke-linecap: butt; stroke-linejoin: miter; stroke-miterlimit: 10; fill: rgb(0,0,0); fill-rule: nonzero; opacity: 1;" transform=" matrix(1 0 0 1 0 0) " stroke-linecap="round" />
	<path d="M 47.318 11.368 c -0.068 0 -0.137 -0.007 -0.206 -0.021 c -2.15 -0.451 -4.33 -0.787 -6.481 -0.999 c -0.549 -0.054 -0.951 -0.544 -0.896 -1.094 c 0.055 -0.549 0.542 -0.953 1.094 -0.896 c 2.222 0.22 4.473 0.567 6.694 1.032 c 0.54 0.113 0.887 0.644 0.773 1.184 C 48.197 11.045 47.781 11.368 47.318 11.368 z" style="stroke: none; stroke-width: 1; stroke-dasharray: none; stroke-linecap: butt; stroke-linejoin: miter; stroke-miterlimit: 10; fill: rgb(0,0,0); fill-rule: nonzero; opacity: 1;" transform=" matrix(1 0 0 1 0 0) " stroke-linecap="round" />
	<path d="M 22.357 11.368 c -0.463 0 -0.879 -0.324 -0.978 -0.795 c -0.113 -0.541 0.233 -1.071 0.774 -1.184 c 4.203 -0.88 8.466 -1.327 12.67 -1.328 c 0.552 0 1 0.447 1 1 c 0 0.552 -0.447 1 -1 1 c -4.067 0.001 -8.192 0.434 -12.26 1.286 C 22.493 11.361 22.425 11.368 22.357 11.368 z" style="stroke: none; stroke-width: 1; stroke-dasharray: none; stroke-linecap: butt; stroke-linejoin: miter; stroke-miterlimit: 10; fill: rgb(0,0,0); fill-rule: nonzero; opacity: 1;" transform=" matrix(1 0 0 1 0 0) " stroke-linecap="round" />
	<path d="M 11.288 21.35 c -0.552 0 -1 -0.448 -1 -1 V 8.911 c 0 -0.552 0.448 -1 1 -1 c 0.552 0 1 0.448 1 1 V 20.35 C 12.288 20.902 11.84 21.35 11.288 21.35 z" style="stroke: none; stroke-width: 1; stroke-dasharray: none; stroke-linecap: butt; stroke-linejoin: miter; stroke-miterlimit: 10; fill: rgb(0,0,0); fill-rule: nonzero; opacity: 1;" transform=" matrix(1 0 0 1 0 0) " stroke-linecap="round" />
	<path d="M 13.418 30.156 H 9.157 c -0.552 0 -1 -0.448 -1 -1 V 22.48 c 0 -1.726 1.404 -3.13 3.13 -3.13 s 3.13 1.404 3.13 3.13 v 6.676 C 14.418 29.709 13.97 30.156 13.418 30.156 z M 10.157 28.156 h 2.261 V 22.48 c 0 -0.623 -0.507 -1.13 -1.13 -1.13 c -0.623 0 -1.13 0.507 -1.13 1.13 V 28.156 z" style="stroke: none; stroke-width: 1; stroke-dasharray: none; stroke-linecap: butt; stroke-linejoin: miter; stroke-miterlimit: 10; fill: rgb(0,0,0); fill-rule: nonzero; opacity: 1;" transform=" matrix(1 0 0 1 0 0) " stroke-linecap="round" />
	<path d="M 33.293 32.033 c -0.158 0 -0.319 -0.038 -0.468 -0.117 c -1.071 -0.569 -2.068 -0.569 -3.14 0 c -0.487 0.26 -1.093 0.074 -1.352 -0.414 c -0.259 -0.487 -0.074 -1.093 0.414 -1.352 c 1.664 -0.885 3.352 -0.885 5.016 0 c 0.488 0.259 0.673 0.865 0.414 1.352 C 33.997 31.84 33.651 32.033 33.293 32.033 z" style="stroke: none; stroke-width: 1; stroke-dasharray: none; stroke-linecap: butt; stroke-linejoin: miter; stroke-miterlimit: 10; fill: rgb(0,0,0); fill-rule: nonzero; opacity: 1;" transform=" matrix(1 0 0 1 0 0) " stroke-linecap="round" />
	<path d="M 41.045 32.033 c -0.158 0 -0.319 -0.038 -0.468 -0.117 c -1.072 -0.57 -2.07 -0.57 -3.14 0 c -0.488 0.26 -1.093 0.074 -1.352 -0.414 c -0.259 -0.488 -0.074 -1.093 0.414 -1.352 c 1.665 -0.885 3.353 -0.884 5.017 0 c 0.488 0.259 0.673 0.865 0.414 1.352 C 41.749 31.84 41.403 32.033 41.045 32.033 z" style="stroke: none; stroke-width: 1; stroke-dasharray: none; stroke-linecap: butt; stroke-linejoin: miter; stroke-miterlimit: 10; fill: rgb(0,0,0); fill-rule: nonzero; opacity: 1;" transform=" matrix(1 0 0 1 0 0) " stroke-linecap="round" />
	<path d="M 35.123 42.236 c -0.002 0 -0.005 0 -0.007 0 c -1.884 -0.003 -3.723 -1.197 -5.466 -3.55 c -0.225 -0.303 -0.26 -0.707 -0.09 -1.045 s 0.515 -0.55 0.893 -0.55 h 9.356 c 0.378 0 0.724 0.213 0.894 0.552 c 0.169 0.338 0.134 0.743 -0.093 1.046 C 38.854 41.043 37.008 42.236 35.123 42.236 z M 32.671 39.091 c 0.844 0.76 1.664 1.144 2.448 1.145 c 0.001 0 0.002 0 0.004 0 c 0.787 0 1.609 -0.384 2.459 -1.145 H 32.671 z" style="stroke: none; stroke-width: 1; stroke-dasharray: none; stroke-linecap: butt; stroke-linejoin: miter; stroke-miterlimit: 10; fill: rgb(0,0,0); fill-rule: nonzero; opacity: 1;" transform=" matrix(1 0 0 1 0 0) " stroke-linecap="round" />
	<path d="M 22.252 71.187 c -0.552 0 -1 -0.447 -1 -1 v -7.838 c 0 -0.553 0.448 -1 1 -1 c 0.552 0 1 0.447 1 1 v 7.838 C 23.252 70.739 22.804 71.187 22.252 71.187 z" style="stroke: none; stroke-width: 1; stroke-dasharray: none; stroke-linecap: butt; stroke-linejoin: miter; stroke-miterlimit: 10; fill: rgb(0,0,0); fill-rule: nonzero; opacity: 1;" transform=" matrix(1 0 0 1 0 0) " stroke-linecap="round" />
	<path d="M 49.214 50.818 c -0.553 0 -1 -0.447 -1 -1 V 25.279 c 0 -1.235 -0.16 -2.457 -0.478 -3.633 c -0.309 -1.148 -0.766 -2.252 -1.359 -3.283 c -0.275 -0.479 -0.11 -1.09 0.368 -1.365 c 0.479 -0.274 1.09 -0.111 1.366 0.368 c 0.679 1.181 1.203 2.446 1.557 3.76 c 0.362 1.345 0.546 2.742 0.546 4.153 v 24.539 C 50.214 50.371 49.766 50.818 49.214 50.818 z" style="stroke: none; stroke-width: 1; stroke-dasharray: none; stroke-linecap: butt; stroke-linejoin: miter; stroke-miterlimit: 10; fill: rgb(0,0,0); fill-rule: nonzero; opacity: 1;" transform=" matrix(1 0 0 1 0 0) " stroke-linecap="round" />
	<path d="M 20.431 50.818 c -0.552 0 -1 -0.447 -1 -1 V 25.279 c 0 -1.412 0.185 -2.812 0.549 -4.162 c 0.355 -1.318 0.881 -2.584 1.562 -3.765 c 0.275 -0.479 0.888 -0.643 1.366 -0.367 c 0.478 0.276 0.643 0.888 0.367 1.366 c -0.594 1.03 -1.053 2.136 -1.364 3.287 c -0.318 1.18 -0.48 2.404 -0.48 3.641 v 24.539 C 21.431 50.371 20.983 50.818 20.431 50.818 z" style="stroke: none; stroke-width: 1; stroke-dasharray: none; stroke-linecap: butt; stroke-linejoin: miter; stroke-miterlimit: 10; fill: rgb(0,0,0); fill-rule: nonzero; opacity: 1;" transform=" matrix(1 0 0 1 0 0) " stroke-linecap="round" />
	<path d="M 34.823 47.367 c -0.822 0 -1.645 -0.144 -2.428 -0.433 c -5.572 -2.052 -9.357 -7.263 -9.877 -13.599 l -0.161 -6.207 c -0.013 -0.51 0.359 -0.947 0.864 -1.017 c 7.753 -1.062 12.112 -2.734 15.046 -5.772 c 0.198 -0.205 0.468 -0.318 0.758 -0.304 c 0.284 0.011 0.551 0.143 0.732 0.362 l 0.487 0.59 c 2.081 2.527 3.337 4.052 6.481 5.77 c 0.324 0.177 0.524 0.519 0.52 0.888 l -0.09 5.997 c -0.137 1.695 -0.267 3.297 -0.979 4.895 c -0.392 0.879 -0.865 1.726 -1.407 2.519 c -0.543 0.793 -1.158 1.538 -1.83 2.215 c -1.623 1.638 -3.537 2.87 -5.688 3.662 C 36.468 47.224 35.645 47.367 34.823 47.367 z M 24.379 27.967 l 0.135 5.261 c 0.46 5.579 3.665 10.023 8.572 11.83 c 1.122 0.414 2.354 0.413 3.473 0 c 1.874 -0.69 3.543 -1.765 4.959 -3.194 c 0.587 -0.592 1.125 -1.243 1.6 -1.936 c 0.474 -0.693 0.889 -1.435 1.232 -2.204 c 0.573 -1.286 0.684 -2.656 0.812 -4.242 l 0.025 -0.31 l 0.052 -4.955 c -3.003 -1.73 -4.4 -3.362 -6.337 -5.713 C 35.794 25.293 31.442 26.922 24.379 27.967 z" style="stroke: none; stroke-width: 1; stroke-dasharray: none; stroke-linecap: butt; stroke-linejoin: miter; stroke-miterlimit: 10; fill: rgb(0,0,0); fill-rule: nonzero; opacity: 1;" transform=" matrix(1 0 0 1 0 0) " stroke-linecap="round" />
	<path d="M 34.82 58.854 c -0.146 0 -0.293 -0.032 -0.429 -0.097 L 18.61 51.273 c -0.499 -0.236 -0.711 -0.833 -0.475 -1.332 c 0.237 -0.499 0.832 -0.711 1.332 -0.475 l 15.353 7.281 l 15.357 -7.281 c 0.502 -0.235 1.096 -0.023 1.332 0.475 c 0.237 0.499 0.024 1.096 -0.475 1.332 l -15.787 7.484 C 35.113 58.822 34.967 58.854 34.82 58.854 z" style="stroke: none; stroke-width: 1; stroke-dasharray: none; stroke-linecap: butt; stroke-linejoin: miter; stroke-miterlimit: 10; fill: rgb(0,0,0); fill-rule: nonzero; opacity: 1;" transform=" matrix(1 0 0 1 0 0) " stroke-linecap="round" />
	<path d="M 27.956 47.838 c -0.15 0 -0.303 -0.034 -0.447 -0.106 c -0.494 -0.247 -0.693 -0.849 -0.446 -1.342 c 0.264 -0.526 0.398 -1.094 0.398 -1.687 v -1.224 c 0 -0.552 0.448 -1 1 -1 s 1 0.448 1 1 v 1.224 c 0 0.895 -0.211 1.788 -0.61 2.583 C 28.675 47.636 28.322 47.838 27.956 47.838 z" style="stroke: none; stroke-width: 1; stroke-dasharray: none; stroke-linecap: butt; stroke-linejoin: miter; stroke-miterlimit: 10; fill: rgb(0,0,0); fill-rule: nonzero; opacity: 1;" transform=" matrix(1 0 0 1 0 0) " stroke-linecap="round" />
	<path d="M 41.69 47.837 c -0.366 0 -0.719 -0.201 -0.895 -0.551 c -0.399 -0.795 -0.61 -1.688 -0.61 -2.583 l -0.012 -1.157 c -0.006 -0.552 0.437 -1.004 0.99 -1.01 c 0.003 0 0.007 0 0.01 0 c 0.548 0 0.994 0.441 1 0.99 l 0.012 1.167 c 0 0.596 0.137 1.179 0.397 1.695 c 0.248 0.494 0.049 1.095 -0.445 1.343 C 41.993 47.803 41.84 47.837 41.69 47.837 z" style="stroke: none; stroke-width: 1; stroke-dasharray: none; stroke-linecap: butt; stroke-linejoin: miter; stroke-miterlimit: 10; fill: rgb(0,0,0); fill-rule: nonzero; opacity: 1;" transform=" matrix(1 0 0 1 0 0) " stroke-linecap="round" />
	<path d="M 13.903 71.187 c -0.552 0 -1 -0.447 -1 -1 V 56.65 c 0 -3.533 2.456 -6.563 5.854 -7.244 l 8.831 -3.498 c 0.449 -0.179 0.962 -0.009 1.217 0.401 l 6.015 9.654 l 6.019 -9.656 c 0.255 -0.409 0.769 -0.58 1.217 -0.4 l 8.831 3.499 c 2.347 0.471 4.307 2.076 5.259 4.312 c 0.217 0.509 -0.021 1.096 -0.528 1.311 c -0.507 0.217 -1.096 -0.02 -1.311 -0.528 c -0.702 -1.649 -2.153 -2.827 -3.883 -3.148 c -0.063 -0.012 -0.126 -0.03 -0.186 -0.054 l -8.142 -3.225 l -6.427 10.309 c -0.183 0.293 -0.503 0.471 -0.849 0.471 l 0 0 c -0.345 0 -0.666 -0.178 -0.849 -0.472 l -6.423 -10.307 L 19.407 51.3 c -0.06 0.023 -0.122 0.042 -0.185 0.054 c -2.503 0.466 -4.319 2.693 -4.319 5.297 v 13.537 C 14.903 70.739 14.455 71.187 13.903 71.187 z" style="stroke: none; stroke-width: 1; stroke-dasharray: none; stroke-linecap: butt; stroke-linejoin: miter; stroke-miterlimit: 10; fill: rgb(0,0,0); fill-rule: nonzero; opacity: 1;" transform=" matrix(1 0 0 1 0 0) " stroke-linecap="round" />
	<polygon points="8.9,76.19 30.31,76.19 27.14,83.74 " style="stroke: none; stroke-width: 1; stroke-dasharray: none; stroke-linecap: butt; stroke-linejoin: miter; stroke-miterlimit: 10; fill: rgb(204,206,213); fill-rule: nonzero; opacity: 1;" transform="  matrix(1 0 0 1 0 0) "/>
	<rect x="27.14" y="83.74" rx="0" ry="0" width="45.14" height="5.25" style="stroke: none; stroke-width: 1; stroke-dasharray: none; stroke-linecap: butt; stroke-linejoin: miter; stroke-miterlimit: 10; fill: rgb(238,240,245); fill-rule: nonzero; opacity: 1;" transform=" matrix(1 0 0 1 0 0) "/>
	<path d="M 27.136 88.999 l -14.834 -6.155 c -2.057 -0.853 -3.398 -2.861 -3.398 -5.088 v -1.569 l 18.232 7.557 V 88.999 z" style="stroke: none; stroke-width: 1; stroke-dasharray: none; stroke-linecap: butt; stroke-linejoin: miter; stroke-miterlimit: 10; fill: rgb(238,240,245); fill-rule: nonzero; opacity: 1;" transform=" matrix(1 0 0 1 0 0) " stroke-linecap="round" />
	<path d="M 78.868 60.077 H 40.703 c -2.196 0 -4.178 1.317 -5.028 3.342 l -8.538 20.326 h 45.138 l 8.645 -20.58 C 81.536 61.697 80.459 60.077 78.868 60.077 z" style="stroke: none; stroke-width: 1; stroke-dasharray: none; stroke-linecap: butt; stroke-linejoin: miter; stroke-miterlimit: 10; fill: rgb(238,240,245); fill-rule: nonzero; opacity: 1;" transform=" matrix(1 0 0 1 0 0) " stroke-linecap="round" />
	<path d="M 54.943 75.783 c -0.431 0 -0.828 -0.279 -0.958 -0.713 c -0.158 -0.529 0.143 -1.087 0.671 -1.245 c 1.19 -0.356 2.372 -1.355 2.874 -2.43 c 0.263 -0.562 0.307 -1.072 0.119 -1.368 c -0.193 -0.304 -0.637 -0.349 -0.884 -0.349 c -1.356 0 -3.051 1.174 -3.7 2.563 c -0.233 0.5 -0.826 0.716 -1.33 0.482 c -0.5 -0.234 -0.716 -0.829 -0.482 -1.33 c 0.975 -2.083 3.395 -3.716 5.513 -3.716 c 1.135 0 2.048 0.453 2.571 1.275 c 0.565 0.889 0.567 2.087 0.005 3.288 c -0.747 1.602 -2.361 2.975 -4.111 3.499 C 55.134 75.769 55.038 75.783 54.943 75.783 z" style="stroke: none; stroke-width: 1; stroke-dasharray: none; stroke-linecap: butt; stroke-linejoin: miter; stroke-miterlimit: 10; fill: rgb(0,0,0); fill-rule: nonzero; opacity: 1;" transform=" matrix(1 0 0 1 0 0) " stroke-linecap="round" />
	<path d="M 72.274 89.998 H 27.136 c -0.552 0 -1 -0.447 -1 -1 v -5.255 c 0 -0.553 0.448 -1 1 -1 h 45.138 c 0.553 0 1 0.447 1 1 v 5.255 C 73.274 89.551 72.827 89.998 72.274 89.998 z M 28.136 87.999 h 43.138 v -3.255 H 28.136 V 87.999 z" style="stroke: none; stroke-width: 1; stroke-dasharray: none; stroke-linecap: butt; stroke-linejoin: miter; stroke-miterlimit: 10; fill: rgb(0,0,0); fill-rule: nonzero; opacity: 1;" transform=" matrix(1 0 0 1 0 0) " stroke-linecap="round" />
	<path d="M 72.274 84.744 H 27.136 c -0.335 0 -0.647 -0.168 -0.833 -0.446 c -0.185 -0.279 -0.219 -0.632 -0.089 -0.941 l 8.538 -20.325 c 1.009 -2.402 3.345 -3.954 5.95 -3.954 h 38.165 c 1.083 0 2.087 0.538 2.686 1.44 c 0.6 0.902 0.707 2.036 0.287 3.034 l -8.645 20.58 C 73.04 84.503 72.677 84.744 72.274 84.744 z M 28.641 82.744 h 42.968 l 8.388 -19.968 c 0.162 -0.384 0.122 -0.804 -0.109 -1.151 c -0.23 -0.349 -0.603 -0.548 -1.02 -0.548 H 40.703 c -1.798 0 -3.41 1.071 -4.106 2.729 L 28.641 82.744 z" style="stroke: none; stroke-width: 1; stroke-dasharray: none; stroke-linecap: butt; stroke-linejoin: miter; stroke-miterlimit: 10; fill: rgb(0,0,0); fill-rule: nonzero; opacity: 1;" transform=" matrix(1 0 0 1 0 0) " stroke-linecap="round" />
	<path d="M 27.136 89.998 c -0.13 0 -0.26 -0.025 -0.383 -0.076 l -14.834 -6.154 c -2.438 -1.012 -4.014 -3.372 -4.014 -6.012 v -1.569 c 0 -0.334 0.167 -0.646 0.444 -0.831 c 0.277 -0.187 0.629 -0.22 0.938 -0.093 l 18.232 7.557 c 0.374 0.155 0.617 0.52 0.617 0.924 v 5.255 c 0 0.334 -0.167 0.646 -0.445 0.832 C 27.525 89.942 27.331 89.998 27.136 89.998 z M 9.905 77.683 v 0.072 c 0 1.829 1.091 3.464 2.781 4.165 l 13.451 5.581 v -3.09 L 9.905 77.683 z" style="stroke: none; stroke-width: 1; stroke-dasharray: none; stroke-linecap: butt; stroke-linejoin: miter; stroke-miterlimit: 10; fill: rgb(0,0,0); fill-rule: nonzero; opacity: 1;" transform=" matrix(1 0 0 1 0 0) " stroke-linecap="round" />
	<path d="M 27.136 84.744 c -0.127 0 -0.257 -0.024 -0.382 -0.076 L 8.522 77.11 c -0.441 -0.183 -0.691 -0.651 -0.598 -1.119 c 0.093 -0.468 0.504 -0.805 0.981 -0.805 h 21.407 c 0.335 0 0.647 0.168 0.833 0.446 c 0.185 0.279 0.219 0.632 0.089 0.941 l -3.175 7.557 C 27.898 84.513 27.526 84.744 27.136 84.744 z M 13.928 77.186 L 26.6 82.439 l 2.206 -5.253 H 13.928 z" style="stroke: none; stroke-width: 1; stroke-dasharray: none; stroke-linecap: butt; stroke-linejoin: miter; stroke-miterlimit: 10; fill: rgb(0,0,0); fill-rule: nonzero; opacity: 1;" transform=" matrix(1 0 0 1 0 0) " stroke-linecap="round" />
</g>
</svg>