<svg xmlns="http://www.w3.org/2000/svg" xmlns:xlink="http://www.w3.org/1999/xlink" version="1.1" width="256" height="256" viewBox="0 0 256 256" xml:space="preserve">

<defs>
</defs>
<g style="stroke: none; stroke-width: 0; stroke-dasharray: none; stroke-linecap: butt; stroke-linejoin: miter; stroke-miterlimit: 10; fill: none; fill-rule: nonzero; opacity: 1;" transform="translate(1.4065934065934016 1.4065934065934016) scale(2.81 2.81)" >
	<path d="M 68.316 5.333 h 16.666 c 2.152 0 3.897 1.745 3.897 3.897 v 47.771 H 1.066 V 9.23 c 0 -2.152 1.745 -3.897 3.897 -3.897 H 68.316 z" style="stroke: none; stroke-width: 1; stroke-dasharray: none; stroke-linecap: butt; stroke-linejoin: miter; stroke-miterlimit: 10; fill: rgb(179,218,254); fill-rule: nonzero; opacity: 1;" transform=" matrix(1 0 0 1 0 0) " stroke-linecap="round" />
	<rect x="34.48" y="67.55" rx="0" ry="0" width="21.1" height="11.51" style="stroke: none; stroke-width: 1; stroke-dasharray: none; stroke-linecap: butt; stroke-linejoin: miter; stroke-miterlimit: 10; fill: rgb(238,240,245); fill-rule: nonzero; opacity: 1;" transform=" matrix(1 0 0 1 0 0) "/>
	<path d="M 85.037 67.551 H 5.018 c -2.152 0 -3.897 -1.745 -3.897 -3.897 v -6.484 h 87.813 v 6.484 C 88.934 65.806 87.189 67.551 85.037 67.551 z" style="stroke: none; stroke-width: 1; stroke-dasharray: none; stroke-linecap: butt; stroke-linejoin: miter; stroke-miterlimit: 10; fill: rgb(238,240,245); fill-rule: nonzero; opacity: 1;" transform=" matrix(1 0 0 1 0 0) " stroke-linecap="round" />
	<path d="M 63.106 84.667 H 26.949 v -1.609 c 0 -2.21 1.792 -4.002 4.002 -4.002 h 28.153 c 2.21 0 4.002 1.792 4.002 4.002 V 84.667 z" style="stroke: none; stroke-width: 1; stroke-dasharray: none; stroke-linecap: butt; stroke-linejoin: miter; stroke-miterlimit: 10; fill: rgb(238,240,245); fill-rule: nonzero; opacity: 1;" transform=" matrix(1 0 0 1 0 0) " stroke-linecap="round" />
	<path d="M 89 58.11 H 1 c -0.552 0 -1 -0.447 -1 -1 V 9.238 c 0 -2.705 2.201 -4.905 4.905 -4.905 h 80.189 C 87.8 4.333 90 6.534 90 9.238 V 57.11 C 90 57.663 89.553 58.11 89 58.11 z M 2 56.11 h 86 V 9.238 c 0 -1.602 -1.304 -2.905 -2.905 -2.905 H 4.905 C 3.303 6.333 2 7.636 2 9.238 V 56.11 z" style="stroke: none; stroke-width: 1; stroke-dasharray: none; stroke-linecap: butt; stroke-linejoin: miter; stroke-miterlimit: 10; fill: rgb(7,42,56); fill-rule: nonzero; opacity: 1;" transform=" matrix(1 0 0 1 0 0) " stroke-linecap="round" />
	<path d="M 85.095 68.515 H 4.905 C 2.201 68.515 0 66.313 0 63.608 V 57.11 c 0 -0.553 0.448 -1 1 -1 h 7.315 c 0.552 0 1 0.447 1 1 s -0.448 1 -1 1 H 2 v 5.498 c 0 1.603 1.303 2.906 2.905 2.906 h 80.189 c 1.602 0 2.905 -1.304 2.905 -2.906 V 58.11 H 31.067 c -0.552 0 -1 -0.447 -1 -1 s 0.448 -1 1 -1 H 89 c 0.553 0 1 0.447 1 1 v 6.498 C 90 66.313 87.8 68.515 85.095 68.515 z" style="stroke: none; stroke-width: 1; stroke-dasharray: none; stroke-linecap: butt; stroke-linejoin: miter; stroke-miterlimit: 10; fill: rgb(7,42,56); fill-rule: nonzero; opacity: 1;" transform=" matrix(1 0 0 1 0 0) " stroke-linecap="round" />
	<path d="M 55.572 80.044 H 34.427 c -0.552 0 -1 -0.447 -1 -1 V 67.515 c 0 -0.553 0.448 -1 1 -1 h 21.145 c 0.553 0 1 0.447 1 1 v 11.529 C 56.572 79.597 56.125 80.044 55.572 80.044 z M 35.427 78.044 h 19.145 v -9.529 H 35.427 V 78.044 z" style="stroke: none; stroke-width: 1; stroke-dasharray: none; stroke-linecap: butt; stroke-linejoin: miter; stroke-miterlimit: 10; fill: rgb(7,42,56); fill-rule: nonzero; opacity: 1;" transform=" matrix(1 0 0 1 0 0) " stroke-linecap="round" />
	<path d="M 48.319 63.313 H 41.68 c -0.552 0 -1 -0.447 -1 -1 s 0.448 -1 1 -1 h 6.639 c 0.553 0 1 0.447 1 1 S 48.872 63.313 48.319 63.313 z" style="stroke: none; stroke-width: 1; stroke-dasharray: none; stroke-linecap: butt; stroke-linejoin: miter; stroke-miterlimit: 10; fill: rgb(7,42,56); fill-rule: nonzero; opacity: 1;" transform=" matrix(1 0 0 1 0 0) " stroke-linecap="round" />
	<path d="M 63.117 85.667 H 26.883 c -0.552 0 -1 -0.447 -1 -1 v -1.612 c 0 -2.763 2.248 -5.011 5.01 -5.011 h 28.213 c 2.763 0 5.011 2.248 5.011 5.011 v 1.612 C 64.117 85.22 63.67 85.667 63.117 85.667 z M 27.883 83.667 h 34.234 v -0.612 c 0 -1.66 -1.351 -3.011 -3.011 -3.011 H 30.894 c -1.66 0 -3.01 1.351 -3.01 3.011 V 83.667 z" style="stroke: none; stroke-width: 1; stroke-dasharray: none; stroke-linecap: butt; stroke-linejoin: miter; stroke-miterlimit: 10; fill: rgb(7,42,56); fill-rule: nonzero; opacity: 1;" transform=" matrix(1 0 0 1 0 0) " stroke-linecap="round" />
	<path d="M 45.027 58.001 c -0.552 0 -1 -0.447 -1 -1 V 5.333 c 0 -0.552 0.448 -1 1 -1 s 1 0.448 1 1 v 51.668 C 46.027 57.554 45.58 58.001 45.027 58.001 z" style="stroke: none; stroke-width: 1; stroke-dasharray: none; stroke-linecap: butt; stroke-linejoin: miter; stroke-miterlimit: 10; fill: rgb(7,42,56); fill-rule: nonzero; opacity: 1;" transform=" matrix(1 0 0 1 0 0) " stroke-linecap="round" />
	<path d="M 88.879 33.167 H 1.121 c -0.552 0 -1 -0.448 -1 -1 s 0.448 -1 1 -1 h 87.758 c 0.553 0 1 0.448 1 1 S 89.432 33.167 88.879 33.167 z" style="stroke: none; stroke-width: 1; stroke-dasharray: none; stroke-linecap: butt; stroke-linejoin: miter; stroke-miterlimit: 10; fill: rgb(7,42,56); fill-rule: nonzero; opacity: 1;" transform=" matrix(1 0 0 1 0 0) " stroke-linecap="round" />
	<path d="M 24.746 47.034 l 3.635 2.426 c 0.927 0.619 1.484 1.66 1.484 2.774 v 4.767 h -6.973 h -6.973 v -4.768 c 0 -1.114 0.556 -2.154 1.482 -2.773 l 3.63 -2.426" style="stroke: none; stroke-width: 1; stroke-dasharray: none; stroke-linecap: butt; stroke-linejoin: miter; stroke-miterlimit: 10; fill: rgb(249,208,112); fill-rule: nonzero; opacity: 1;" transform=" matrix(1 0 0 1 0 0) " stroke-linecap="round" />
	<path d="M 23.145 47.434 h -0.508 c -1.907 0 -3.453 -1.546 -3.453 -3.453 v -3.106 c 0 -1.907 1.546 -3.453 3.453 -3.453 h 0.508 c 1.907 0 3.453 1.546 3.453 3.453 v 3.106 C 26.598 45.888 25.052 47.434 23.145 47.434 z" style="stroke: none; stroke-width: 1; stroke-dasharray: none; stroke-linecap: butt; stroke-linejoin: miter; stroke-miterlimit: 10; fill: rgb(236,190,155); fill-rule: nonzero; opacity: 1;" transform=" matrix(1 0 0 1 0 0) " stroke-linecap="round" />
	<path d="M 29.865 58.001 H 15.918 c -0.552 0 -1 -0.447 -1 -1 v -4.769 c 0 -1.451 0.72 -2.799 1.927 -3.604 l 3.629 -2.426 c 0.458 -0.308 1.08 -0.184 1.387 0.275 c 0.307 0.459 0.184 1.08 -0.276 1.387 l -3.63 2.427 c -0.65 0.435 -1.038 1.16 -1.038 1.941 v 3.769 h 11.947 v -3.767 c 0 -0.782 -0.388 -1.509 -1.039 -1.942 l -3.635 -2.427 c -0.459 -0.307 -0.583 -0.928 -0.276 -1.388 c 0.306 -0.459 0.928 -0.582 1.387 -0.276 l 3.635 2.427 c 1.208 0.806 1.929 2.154 1.929 3.606 v 4.767 C 30.865 57.554 30.417 58.001 29.865 58.001 z" style="stroke: none; stroke-width: 1; stroke-dasharray: none; stroke-linecap: butt; stroke-linejoin: miter; stroke-miterlimit: 10; fill: rgb(7,42,56); fill-rule: nonzero; opacity: 1;" transform=" matrix(1 0 0 1 0 0) " stroke-linecap="round" />
	<path d="M 23.145 48.435 h -0.508 c -2.456 0 -4.453 -1.998 -4.453 -4.454 v -3.106 c 0 -2.456 1.998 -4.453 4.453 -4.453 h 0.508 c 2.456 0 4.454 1.998 4.454 4.453 v 3.106 C 27.599 46.437 25.601 48.435 23.145 48.435 z M 22.637 38.421 c -1.353 0 -2.453 1.101 -2.453 2.453 v 3.106 c 0 1.353 1.101 2.454 2.453 2.454 h 0.508 c 1.353 0 2.454 -1.101 2.454 -2.454 v -3.106 c 0 -1.353 -1.101 -2.453 -2.454 -2.453 H 22.637 z" style="stroke: none; stroke-width: 1; stroke-dasharray: none; stroke-linecap: butt; stroke-linejoin: miter; stroke-miterlimit: 10; fill: rgb(7,42,56); fill-rule: nonzero; opacity: 1;" transform=" matrix(1 0 0 1 0 0) " stroke-linecap="round" />
	<path d="M 68.963 47.034 l 3.635 2.426 c 0.927 0.619 1.484 1.66 1.484 2.774 v 4.767 h -6.973 h -6.973 v -4.768 c 0 -1.114 0.556 -2.154 1.482 -2.773 l 3.63 -2.426" style="stroke: none; stroke-width: 1; stroke-dasharray: none; stroke-linecap: butt; stroke-linejoin: miter; stroke-miterlimit: 10; fill: rgb(240,114,129); fill-rule: nonzero; opacity: 1;" transform=" matrix(1 0 0 1 0 0) " stroke-linecap="round" />
	<path d="M 67.363 47.434 h -0.508 c -1.907 0 -3.453 -1.546 -3.453 -3.453 v -3.106 c 0 -1.907 1.546 -3.453 3.453 -3.453 h 0.508 c 1.907 0 3.453 1.546 3.453 3.453 v 3.106 C 70.816 45.888 69.27 47.434 67.363 47.434 z" style="stroke: none; stroke-width: 1; stroke-dasharray: none; stroke-linecap: butt; stroke-linejoin: miter; stroke-miterlimit: 10; fill: rgb(236,190,155); fill-rule: nonzero; opacity: 1;" transform=" matrix(1 0 0 1 0 0) " stroke-linecap="round" />
	<path d="M 74.082 58.001 H 60.136 c -0.553 0 -1 -0.447 -1 -1 v -4.769 c 0 -1.451 0.72 -2.799 1.926 -3.604 l 3.63 -2.426 c 0.46 -0.307 1.081 -0.183 1.387 0.275 c 0.308 0.459 0.184 1.08 -0.275 1.387 l -3.63 2.427 c -0.649 0.434 -1.037 1.159 -1.037 1.941 v 3.769 h 11.946 v -3.767 c 0 -0.782 -0.388 -1.509 -1.038 -1.942 l -3.636 -2.427 c -0.459 -0.307 -0.583 -0.928 -0.276 -1.388 c 0.307 -0.458 0.926 -0.582 1.388 -0.276 l 3.635 2.427 c 1.207 0.806 1.928 2.153 1.928 3.606 v 4.767 C 75.082 57.554 74.635 58.001 74.082 58.001 z" style="stroke: none; stroke-width: 1; stroke-dasharray: none; stroke-linecap: butt; stroke-linejoin: miter; stroke-miterlimit: 10; fill: rgb(7,42,56); fill-rule: nonzero; opacity: 1;" transform=" matrix(1 0 0 1 0 0) " stroke-linecap="round" />
	<path d="M 67.362 48.435 h -0.508 c -2.455 0 -4.453 -1.998 -4.453 -4.454 v -3.106 c 0 -2.456 1.998 -4.453 4.453 -4.453 h 0.508 c 2.455 0 4.453 1.998 4.453 4.453 v 3.106 C 71.815 46.437 69.817 48.435 67.362 48.435 z M 66.854 38.421 c -1.353 0 -2.453 1.101 -2.453 2.453 v 3.106 c 0 1.353 1.101 2.454 2.453 2.454 h 0.508 c 1.353 0 2.453 -1.101 2.453 -2.454 v -3.106 c 0 -1.353 -1.101 -2.453 -2.453 -2.453 H 66.854 z" style="stroke: none; stroke-width: 1; stroke-dasharray: none; stroke-linecap: butt; stroke-linejoin: miter; stroke-miterlimit: 10; fill: rgb(7,42,56); fill-rule: nonzero; opacity: 1;" transform=" matrix(1 0 0 1 0 0) " stroke-linecap="round" />
	<path d="M 68.963 22.2 l 3.635 2.426 c 0.927 0.619 1.484 1.66 1.484 2.774 v 4.767 h -6.973 h -6.973 v -4.768 c 0 -1.114 0.556 -2.154 1.482 -2.773 l 3.63 -2.426" style="stroke: none; stroke-width: 1; stroke-dasharray: none; stroke-linecap: butt; stroke-linejoin: miter; stroke-miterlimit: 10; fill: rgb(63,110,144); fill-rule: nonzero; opacity: 1;" transform=" matrix(1 0 0 1 0 0) " stroke-linecap="round" />
	<path d="M 67.363 22.6 h -0.508 c -1.907 0 -3.453 -1.546 -3.453 -3.453 V 16.04 c 0 -1.907 1.546 -3.453 3.453 -3.453 h 0.508 c 1.907 0 3.453 1.546 3.453 3.453 v 3.106 C 70.816 21.054 69.27 22.6 67.363 22.6 z" style="stroke: none; stroke-width: 1; stroke-dasharray: none; stroke-linecap: butt; stroke-linejoin: miter; stroke-miterlimit: 10; fill: rgb(236,190,155); fill-rule: nonzero; opacity: 1;" transform=" matrix(1 0 0 1 0 0) " stroke-linecap="round" />
	<path d="M 74.082 33.167 H 60.136 c -0.553 0 -1 -0.448 -1 -1 v -4.769 c 0 -1.451 0.72 -2.798 1.926 -3.604 l 3.63 -2.426 c 0.46 -0.307 1.081 -0.183 1.387 0.276 c 0.308 0.459 0.184 1.08 -0.275 1.387 l -3.63 2.426 c -0.649 0.434 -1.037 1.16 -1.037 1.941 v 3.769 h 11.946 V 27.4 c 0 -0.782 -0.389 -1.508 -1.039 -1.943 l -3.634 -2.426 c -0.46 -0.306 -0.584 -0.927 -0.277 -1.387 c 0.307 -0.459 0.928 -0.584 1.387 -0.276 l 3.635 2.426 c 1.208 0.807 1.929 2.154 1.929 3.606 v 4.767 C 75.082 32.719 74.635 33.167 74.082 33.167 z" style="stroke: none; stroke-width: 1; stroke-dasharray: none; stroke-linecap: butt; stroke-linejoin: miter; stroke-miterlimit: 10; fill: rgb(7,42,56); fill-rule: nonzero; opacity: 1;" transform=" matrix(1 0 0 1 0 0) " stroke-linecap="round" />
	<path d="M 67.362 23.6 h -0.508 c -2.455 0 -4.453 -1.998 -4.453 -4.453 v -3.106 c 0 -2.456 1.998 -4.453 4.453 -4.453 h 0.508 c 2.455 0 4.453 1.998 4.453 4.453 v 3.106 C 71.815 21.603 69.817 23.6 67.362 23.6 z M 66.854 13.587 c -1.353 0 -2.453 1.101 -2.453 2.453 v 3.106 c 0 1.353 1.101 2.453 2.453 2.453 h 0.508 c 1.353 0 2.453 -1.101 2.453 -2.453 v -3.106 c 0 -1.353 -1.101 -2.453 -2.453 -2.453 H 66.854 z" style="stroke: none; stroke-width: 1; stroke-dasharray: none; stroke-linecap: butt; stroke-linejoin: miter; stroke-miterlimit: 10; fill: rgb(7,42,56); fill-rule: nonzero; opacity: 1;" transform=" matrix(1 0 0 1 0 0) " stroke-linecap="round" />
	<polygon points="18.97,10.66 35.03,10.66 35.03,32.17 22.59,32.17 18.97,32.17 " style="stroke: none; stroke-width: 1; stroke-dasharray: none; stroke-linecap: butt; stroke-linejoin: miter; stroke-miterlimit: 10; fill: rgb(225,229,234); fill-rule: nonzero; opacity: 1;" transform="  matrix(1 0 0 1 0 0) "/>
	<path d="M 35.03 33.167 H 18.97 c -0.552 0 -1 -0.448 -1 -1 v -21.51 c 0 -0.552 0.448 -1 1 -1 H 35.03 c 0.552 0 1 0.448 1 1 v 21.51 C 36.03 32.719 35.583 33.167 35.03 33.167 z M 19.97 31.167 H 34.03 v -19.51 H 19.97 V 31.167 z" style="stroke: none; stroke-width: 1; stroke-dasharray: none; stroke-linecap: butt; stroke-linejoin: miter; stroke-miterlimit: 10; fill: rgb(7,42,56); fill-rule: nonzero; opacity: 1;" transform=" matrix(1 0 0 1 0 0) " stroke-linecap="round" />
	<polygon points="13.97,14.98 30.03,14.98 30.03,32.17 17.59,32.17 13.97,32.17 " style="stroke: none; stroke-width: 1; stroke-dasharray: none; stroke-linecap: butt; stroke-linejoin: miter; stroke-miterlimit: 10; fill: rgb(225,229,234); fill-rule: nonzero; opacity: 1;" transform="  matrix(1 0 0 1 0 0) "/>
	<path d="M 30.03 33.167 H 13.97 c -0.552 0 -1 -0.448 -1 -1 V 14.982 c 0 -0.552 0.448 -1 1 -1 H 30.03 c 0.552 0 1 0.448 1 1 v 17.185 C 31.03 32.719 30.583 33.167 30.03 33.167 z M 14.97 31.167 H 29.03 V 15.982 H 14.97 V 31.167 z" style="stroke: none; stroke-width: 1; stroke-dasharray: none; stroke-linecap: butt; stroke-linejoin: miter; stroke-miterlimit: 10; fill: rgb(7,42,56); fill-rule: nonzero; opacity: 1;" transform=" matrix(1 0 0 1 0 0) " stroke-linecap="round" />
	<path d="M 25.664 24.595 h -7.328 c -0.552 0 -1 -0.448 -1 -1 s 0.448 -1 1 -1 h 7.328 c 0.552 0 1 0.448 1 1 S 26.216 24.595 25.664 24.595 z" style="stroke: none; stroke-width: 1; stroke-dasharray: none; stroke-linecap: butt; stroke-linejoin: miter; stroke-miterlimit: 10; fill: rgb(7,42,56); fill-rule: nonzero; opacity: 1;" transform=" matrix(1 0 0 1 0 0) " stroke-linecap="round" />
	<path d="M 21.664 28.748 h -3.328 c -0.552 0 -1 -0.448 -1 -1 s 0.448 -1 1 -1 h 3.328 c 0.552 0 1 0.448 1 1 S 22.216 28.748 21.664 28.748 z" style="stroke: none; stroke-width: 1; stroke-dasharray: none; stroke-linecap: butt; stroke-linejoin: miter; stroke-miterlimit: 10; fill: rgb(7,42,56); fill-rule: nonzero; opacity: 1;" transform=" matrix(1 0 0 1 0 0) " stroke-linecap="round" />
	<path d="M 25.664 20.443 h -7.328 c -0.552 0 -1 -0.448 -1 -1 s 0.448 -1 1 -1 h 7.328 c 0.552 0 1 0.448 1 1 S 26.216 20.443 25.664 20.443 z" style="stroke: none; stroke-width: 1; stroke-dasharray: none; stroke-linecap: butt; stroke-linejoin: miter; stroke-miterlimit: 10; fill: rgb(7,42,56); fill-rule: nonzero; opacity: 1;" transform=" matrix(1 0 0 1 0 0) " stroke-linecap="round" />
</g>
</svg>